<?xml version="1.0" encoding="UTF-8"?>
<!DOCTYPE svg  PUBLIC '-//W3C//DTD SVG 20010904//EN'  'http://www.w3.org/TR/2001/REC-SVG-20010904/DTD/svg10.dtd'>
<svg width="959pt" height="1280pt" version="1.0" viewBox="0 0 959 1280" xmlns="http://www.w3.org/2000/svg">
<metadata>Created by potrace 1.16, written by Peter Selinger 2001-2019</metadata>
<g transform="translate(0 1280) scale(.1 -.1)">
<path d="m2330 12738c0-34 7-202 16-373 9-185 14-434 12-611-3-268-5-305-23-356-14-41-25-58-37-58-11 0-18-8-18-20 0-26-25-26-58 1-29 22-40 12-22-21 16-29 6-36-24-16-32 20-36 20-36-1 0-9-7-24-16-34-14-16-14-20 2-51 21-41 66-98 77-98 5 0 15-7 23-15 20-19 43-19 51 0 5 14 8 14 24-1 11-9 19-23 19-31 0-7 4-13 10-13 5 0 12-17 15-37 3-21 10-56 16-78 5-22 12-74 16-115 6-73 7-100 5-265 0-44 0-132-1-195-1-195-8-393-15-430-15-77-30-136-36-145s-5-64 2-128c2-15 8-31 15-35 6-4 14-25 18-47s13-50 21-62 14-29 14-38c0-8 5-15 11-15 5 0 7-4 4-10s1-7 9-4c13 5 16-2 16-34 0-22 5-42 11-44 8-3 8-52 0-183-14-219-19-258-32-266-6-3-7-18-3-34 5-19 3-26-4-21-10 6-21-16-26-52-2-9-7-17-13-19-15-5-16 184-2 439l13 226-26 40c-15 21-28 52-30 68l-4 29-8-27c-5-18-2-38 9-61 14-30 16-60 11-202-3-91-8-170-11-175s-8-42-10-82c-3-40-9-74-15-76-5-2-10-13-10-25 0-23-19-83-33-104-11-18-19-52-22-94-2-20-8-46-14-57-18-34-49-205-41-227 4-12 19-22 36-25 27-5 29-9 27-46-1-22-13-91-28-154-25-107-37-163-63-312-19-102-43-171-56-157-2 2 2 38 10 79s19 101 24 133c6 32 14 66 19 75 4 9 12 40 17 67 4 28 9 57 11 65s7 38 11 65c5 28 10 55 12 60 1 6 2 29 1 53-1 52-21 56-22 5 0-41-17-94-18-60-1 9-6 17-12 17s-8-9-4-22 9-31 11-40c6-21-16-24-34-6-9 9-12 5-12-18 0-17-9-40-20-52-19-20-19-22-3-22 13 0 14-3 5-12-7-7-13-26-13-43l-1-30-7 30c-5 24-8 26-14 12-3-9-4-30-1-45 4-19 0-32-10-41-18-15-21-47-6-56 6-3 10-22 10-40 0-27-7-39-30-57-18-13-30-31-30-44s-4-34-10-48c-6-17-6-26 0-26s10 6 10 13c0 8 4 7 10-3 5-8 10-22 10-30 0-13-1-13-10 0-13 21-28 3-34-42-2-20-9-45-15-56-6-12-11-26-11-33 0-16 30 10 40 36 8 17 9 18 9 2 1-22-24-74-49-102-10-11-20-36-24-55l-5-35 11 33c6 17 17 32 25 32s12-6 9-12c-2-7-10-32-17-56-9-34-14-40-25-31s-14 8-14-5c0-9-4-24-9-34-14-27-31-109-31-147 0-19-4-35-10-35-5 0-10-16-10-36 0-19-4-33-9-30-8 5-13-12-24-89-2-11-6-27-10-35-19-47-39-163-38-214 2-61-14-126-30-126-11 0-12-41 0-72 5-14 3-62-5-123-7-55-13-118-14-139 0-22-6-47-14-55-7-9-22-38-32-66-10-27-22-53-27-56s-11-26-14-50c-7-51-29-89-50-89-10 0-13-6-9-16 4-9-1-28-9-41-19-28-67-191-61-202 3-4-1-19-9-34-7-14-15-45-17-69-2-36 0-43 14-40 12 2 18-6 20-25 3-25 8-29 53-35 93-13 116-20 123-39 7-17 10-16 40 12 17 16 34 40 37 52s18 81 35 152c16 72 52 236 79 365 28 129 85 388 126 575 84 375 124 554 160 720 28 131 42 194 85 380 100 432 121 530 128 595l7 65 35 1c19 1 37-3 41-7 7-12-4-97-29-209-12-52-64-302-117-555s-99-471-102-485c-5-22 2-18 48 27 30 28 86 70 124 93 108 66 274 140 313 140 32 0-6-22-87-50-128-44-250-124-300-197-42-62-82-226-62-261 7-13 12-5 25 38 8 30 18 69 22 85 17 73 82 162 159 214 96 65 369 161 462 161 54 0 63 7 47 38-19 38 0 63 66 84 64 21 66 23 50 43-8 10-9 15-1 15 19 0 12 28-9 35-11 3-20 13-20 20 0 20 89 199 132 265 19 30 78 105 129 165 52 61 125 150 163 198 84 109 262 287 333 333 81 52 170 94 199 94 15 0 32 7 38 15 7 9 33 17 68 19 31 3 65 9 75 14s52 7 93 4c95-6 89-6 319 9 147 9 198 10 212 1 10-7 30-12 43-12 14 0 28-4 31-10 3-5 34-10 68-10 87 0 97-3 139-41 27-24 47-34 74-35 21 0 40-6 42-12 2-7 10-12 18-12s11-6 8-15c-8-21 14-45 41-45 13 0 25-7 29-15 3-8 17-15 31-15 29 0 95-47 95-68 0-8 9-10 28-6s23 3 13-4c-8-6-10-15-6-22 6-10 11-9 22 5 12 17 13 17 13-9 0-19 6-29 20-33 11-3 20-9 20-14s7-9 16-9 24-10 35-22c10-14 18-18 19-10 0 27 20-1 20-29 0-17 6-32 15-35 16-7 21-34 6-34-18 0-18-40 0-74s18-34-3-48c-25-17-16-42 13-33 11 4 19 2 19-5 0-6 5-8 10-5 6 3 13-1 16-9 3-9 13-16 20-16 18 0 95-81 88-92-8-12-42-9-46 4-3 7-7 5-11-5-5-13 3-23 31-40l37-22-30-5-29-5 27-22c16-12 35-19 43-16 17 6 83-32 103-60 8-11 50-55 94-96 44-42 98-96 121-121 22-25 65-69 93-98 29-29 53-54 53-57 0-2 25-30 55-62s55-61 55-65c0-5 7-8 15-8 22 0 125-114 113-125-12-12-172 63-611 284-374 189-366 187-367 114 0-17-4-34-9-37s-39 5-75 19c-37 14-69 25-71 25-3 0-5-18-5-40 0-47 10-54 140-94 47-15 127-47 178-72 51-24 99-44 106-44 40 0 566-228 566-246 0-8-61 6-85 20-11 7-27 11-35 10s-21-2-27-3c-7 0-13-6-13-12 0-20 25-35 84-52 33-9 62-20 65-25s40-24 81-42c136-62 161-92 140-172-9-31-9-43 1-48 8-5 9-14 3-26-4-11-9-57-10-104-2-88-6-123-18-177-4-19-3-40 4-53 9-16 8-25-2-38-11-14-11-15 5-9 23 9 34-19 19-44-9-14-8-26 3-54 25-59 43-159 33-185-5-13-6-31-2-39 4-9 6-20 5-26-2-5 3-26 9-46 11-33 10-39-9-58-17-17-19-24-9-40 6-10 8-27 4-37-6-15-9-16-16-4-5 8-12 12-15 8-4-3 1-18 10-32 18-27 14-58-6-54-7 2-13-15-15-43-3-42-1-46 16-42 10 3 21 12 24 20 11 29 27 2 20-35-8-41-18-52-51-52-13 0-23-4-23-10 0-5-5-10-11-10s-8 8-4 19c3 11 1 22-4 25-16 10-23-31-9-54 9-14 10-23 2-28-10-7-15-32-14-89 0-18-5-33-11-33s-9-12-7-27c2-20-2-28-12-28-18 0-16 65 2 76 6 4 8 15 3 25-22 54-24 90-8 134 9 25 21 51 26 58s7 16 3 19c-4 4-11 1-15-6-7-11-12-7-23 14-19 36-28 21-29-47-1-29-6-64-10-77-8-20-12-21-25-10-21 17-35-4-27-42 3-18 0-28-11-32-9-4-16-15-16-25s-9-34-19-55c-15-29-16-37-5-37 8 0 14-7 14-16s6-14 13-11c7 2 11 15 9 30-2 17 1 27 10 27 30-1 40-19 45-80l4-63-25 5c-23 5-26 2-26-21 0-14-11-36-24-49-22-21-25-21-29-5-3 12-5 9-6-8-2-49-50-45-51 5 0 12-5 16-16 12-9-3-20-6-25-6s-9-11-9-25c0-13-6-28-14-32s-15-17-18-28c-2-12-11-20-23-20-20 0-22 9-14 77 2 15-1 27-6 27-6 0-9-9-7-19 2-12-2-20-10-20-11 0-14 20-11 94 2 73-1 95-12 100-13 5-28-20-24-40 1-5-2-19-6-30-6-19-10-20-36-11-18 7-34 24-44 47l-15 35 6-35c8-47 22-70 39-70 8 0 15-4 15-10 0-22-30-8-45 20-18 34-30 40-22 10 3-12 0-31-7-44-10-20-15-22-29-11-9 7-17 21-17 32s-3 23-7 26c-10 11-58-47-54-67 1-10 0-30-4-45l-7-26-11 34c-7 19-21 39-32 45-35 19-47 46-20 46 8 0 15 7 15 15 0 9-8 14-22 12-17-1-25 6-35 33-11 32-12 27-8-47 3-45 1-85-4-88-14-8-18 4-25 70-4 33-13 70-21 82s-15 30-15 39c0 10-5 14-15 10-8-3-19 3-25 12-8 12-9 2-4-41 6-52 5-57-11-50-19 7-16-5 10-37 19-24 24-57 10-77-7-10-15-27-18-38-4-11-4 0-1 25 3 31 0 52-10 65-9 11-16 28-16 38 0 9-7 17-16 17-12 0-15-6-11-21s0-23-12-26c-15-4-16-16-14-96 3-74 1-89-9-79-7 7-13 36-13 65s-5 59-10 67c-14 22-34 100-35 137 0 29-15 52-26 40-3-2-1-31 5-63 6-41 6-61-2-66-21-13-29 5-24 53 4 29 2 51-4 55-18 11-31-11-34-57-4-68-4-69-16-69-8 0-10 15-5 49 4 33 2 57-8 75l-13 27-7-23c-3-13-6-33-6-45 0-14-6-23-15-23-17 0-18-2-6-54 11-44-1-86-23-86-12 0-13 11-9 53 7 71-18 131-50 121s-32-10-33-80c-1-36-4-68-8-71-3-4-6 3-6 15s-4 22-10 22c-5 0-10-14-10-32 0-17-3-29-6-25-3 3-6 28-6 56 1 49 0 50-28 48-24-2-29-7-34-36-3-19-1-41 4-51 10-19 2-60-12-60-16 0-47 44-48 67 0 12-4 25-10 28-5 3-10 24-10 46s-5 39-11 39c-8 0-10-21-5-70 6-60 5-70-8-70-9 0-17-9-18-22-4-62-3-78 4-78 4 0 8-21 8-46 0-40-2-45-15-34-8 7-15 25-15 41 0 36-17 79-31 79-7 0-9-13-4-40 9-51-1-67-26-44-10 9-19 25-19 34 0 10-9 20-20 23s-20 12-20 21-4 16-10 16c-5 0-9-16-8-35 1-28 4-33 15-24 10 9 13 8 13-5 0-9-4-16-10-16-5 0-10-11-10-25 0-34-12-31-35 8l-20 32-3-33c-2-20-7-30-14-26-8 5-9-3-5-24s1-34-9-43c-23-19-29-3-29 73 0 49-4 73-13 76-8 2-12-6-12-25 0-15-1-37-1-48-1-11 2-29 6-41 5-15-1-29-24-52-17-17-31-36-31-42s-4-8-10-5c-5 3-20-3-32-14-12-12-18-21-14-21 5 0 3-7-4-15s-10-21-7-29 1-30-5-50c-17-55-58-61-58-8 0 15-9 45-20 67s-20 48-20 60c-1 18-2 18-15-5l-14-25-1 28c0 18 5 27 16 27 13 0 15 7 10 32-4 18-9 48-13 66-3 18-9 35-14 38-13 8-11 88 2 101 6 6 9 23 5 36-4 19-11 24-26 20-19-5-24 7-19 43 1 11-25 24-47 24-12 0-29 12-39 26-9 14-22 24-28 21-21-8-57 12-57 31 0 10-9 27-19 36s-22 37-25 61c-5 27-13 46-24 50-9 3-18 2-20-3-5-16-59 16-65 38-4 15-14 20-41 20-20 0-36-5-36-11 0-5-11 1-24 15-29 32-32 32-40 4-5-22-6-22-19-4-8 11-19 16-25 12-8-5-12 2-12 18 0 18-9 30-31 41-17 9-37 14-44 11-9-3-15 3-17 17-3 25-36 36-49 16-6-11-12-11-33 1-24 12-28 11-40-6-19-25-31-11-28 31 4 41-15 55-28 21-5-14-15-26-21-26-11 0-9 16 6 53 6 14 2 17-20 17-30 0-65 16-65 30 0 6 7 10 15 10s15 5 15 10c0 6-10 10-22 10-20 0-21 1-4 13 16 11 11 13-35 14-41 1-57 5-70 22-10 13-20 17-24 11-9-14-25-12-20 3 3 7-12 20-39 32-26 12-42 25-39 32 6 16-21 17-48 3-16-9-19-7-19 9 0 15-5 19-21 16-12-3-24-7-27-9-6-7-56 19-71 38-16 20-31 21-31 2 0-7-9-25-21-40-12-16-18-33-14-45 9-31-46-37-82-9-16 13-44 3-89-32-38-31-53-29-76 7-5 6-16 9-27 6-12-3-20 2-24 16-3 12-12 21-21 21-18 0-22 26-4 32 7 3 9 12 5 22-9 22-36 17-117-20-64-30-68-32-109-62-27-20-31-21-31-6 0 23 69 195 86 215 19 22 18 32-13 83-23 38-39 50-100 77-39 17-79 39-87 48-40 44-83 238-92 416-6 109-9 125-24 125s-18 15-24 98c-4 53-11 113-15 132-7 34-7 34-24-30-9-36-26-108-37-160-12-52-30-133-40-180-21-91-70-311-99-450-10-47-34-155-54-240-19-85-49-222-66-305-18-82-48-213-68-290-19-77-39-156-43-175-9-44-49-189-60-215-6-13-7-3-5 30l4 50-19-40c-10-22-28-83-40-135-13-52-26-104-31-115-4-11-10-40-13-65-9-84-36-214-46-224-5-5-10-18-10-28s-4-18-10-18c-5 0-10-14-10-31 0-16-4-28-8-25-14 8 15 156 78 406 10 41 26 116 35 165 9 50 32 167 51 260 19 94 34 175 34 182s-17 15-37 19c-21 4-45 10-53 14-25 14-60-34-60-84 0-49-17-152-30-181-5-11-11-33-14-50-17-93-50-231-56-235-5-3-13-75-20-160-6-85-15-156-21-158-5-2-9-14-9-26s-11-33-25-46c-17-16-25-34-25-57 0-18-4-33-8-33-5 0-14-24-21-53-6-29-20-66-30-84-19-31-19-31 2-51 35-32 67-44 98-38 32 6 69 35 69 53 0 7 5 13 10 13 6 0 10-9 10-20 0-18 10-25 32-21 4 0 12-8 18-19s14-18 18-16c13 8 13-58 1-81-7-13-20-23-29-23s-21-14-29-35c-13-36-26-44-34-22-4 9-8 9-15-2-13-19-42-6-42 18 0 28-11 52-21 46-11-8-49 15-72 42-10 13-26 22-35 21-24-2-82 13-82 21 0 4-29 7-64 7-48-1-69-6-85-20s-34-19-72-17c-62 2-127-17-143-41-6-10-16-18-23-18-21 0-24-18-8-62 8-24 15-51 15-60 0-10 5-18 10-18 6 0 10-18 10-40s5-40 10-40c6 0 10-18 10-40 0-26-5-40-13-40-12 0-28-24-43-62-3-10-10-18-15-18-4 0-11-17-15-37s-18-49-30-62c-13-14-24-34-24-43 0-10-6-18-14-18-22 0-36-48-41-143-3-62-10-93-21-104-35-35-46-61-35-82 11-20 18-20 319-14 250 4 329 2 426-11 66-9 122-19 125-22 3-4-32-4-78-1s-117 3-159 0c-62-5-72-8-58-18 14-11 15-14 1-25-8-7-15-18-15-25s-7-26-15-41c-8-16-19-54-25-84s-17-71-25-90c-25-61-36-120-41-209-3-47-9-104-14-127-5-22-14-92-20-154-11-122-27-197-66-326-13-44-24-90-24-102s-4-22-10-22c-5 0-10-9-10-19 0-11-5-23-10-26-6-4-10-14-9-23 4-29-11-48-35-47-14 0-27 3-30 6-12 12-16 89-5 116 18 48 40 183 33 205-3 11-1 24 5 27 11 7 18 183 8 211-31 91-44 116-74 152-19 23-42 59-50 80-14 36-33 51-33 27 0-6-8-1-18 10l-17 22-23-21c-15-14-22-32-22-56 0-19-16-81-36-137s-39-115-43-132c-7-25-45-120-92-230-4-11-13-40-19-65-7-25-24-65-39-90-44-75-48-84-56-129-8-47-37-84-63-79-11 2-19 22-27 65-6 35-13 64-16 66-2 2-29 11-59 19-54 14-55 15-63 59-12 70-16 107-23 212-3 53-11 97-16 97-6 0-8 6-5 14 4 9-7 17-32 25-21 6-41 11-45 11-3 0-6-515-6-1145v-1145h1905c1857 0 1905 0 1905 19 0 10-7 25-16 32-12 10-15 24-10 57 3 24 1 52-4 62-21 38 3 64 71 79 44 10 71 23 91 43 31 32 75 40 60 11-15-28-4-45 20-32 23 13 48 5 48-15 0-7 8-13 17-12 12 1 18-7 19-22 2-32 10-37 39-24 38 18 95 15 95-3 0-12 4-13 18-6s25 6 40-5c26-18 28-51 6-82-13-19-13-22 0-22 8 0 16-4 18-9 2-4 19-11 39-15 31-5 37-4 42 14 4 14-2 23-21 33-19 9-26 19-24 35 2 15-2 22-12 22-18 0-21 16-6 25 6 3 13-1 16-9 4-11 19-16 50-16h43l-30 32c-17 18-42 49-55 70-13 20-28 39-34 43-5 3-10 17-10 31 0 33 33 32 48-2 9-19 17-24 31-19 11 3 41-4 68-16 26-12 62-27 79-35 46-20 109-28 141-17 20 7 37 6 58-3 17-7 41-13 55-13s19 3 13 6c-7 2-13 11-13 19 0 20 17 17 75-11 45-22 58-24 140-19 49 3 97 5 105 4 55-3 101-9 134-18 27-8 45-8 58-1 24 13 79 15 133 5 82-15 93-24 53-44l-23-11 25-1 25-2-25-11c-48-22-54-29-39-38 8-5 31-9 52-9 35 0 38-2 31-22-4-13-8-34-8-48l-1-25 2028-3 2027-2-2 5212c-2 3872-6 5212-14 5211-7-1-17 19-23 45-7 26-16 61-21 78-6 17-10 44-10 61s-14 105-30 195c-17 89-35 192-41 228-11 64-31 158-49 235-9 35-33 183-110 670-13 77-26 162-31 189s-11 117-14 200-7 158-10 167c-3 8-19 22-37 30-50 22-57 43-26 76 22 24 27 40 32 116l7 87h-421c-256 0-419-4-415-9 7-12 46-24 170-51 55-13 127-36 161-51 33-16 66-29 72-29s15-6 19-14 16-15 26-17 17-8 15-14c-4-13-101-13-202 1-44 7-169 24-276 38-297 41-473 67-495 72-11 3-110 19-220 36l-200 32-5115 6v-62zm-425-5916c-10-48-26-123-37-167s-22-93-25-110c-3-16-9-34-13-40-4-5-10-35-14-65-7-55-32-146-46-165-4-5-11-35-14-65-9-72-39-163-56-168-10-4-11 3-6 29 19 96 19 109 2 109-13 0-16 5-11 23 9 28 25 46 25 27 0-20 13-3 17 23 2 12 3 52 3 88 0 47 4 70 15 79 12 10 15 9 16-6 1-30 20 37 20 71 0 32 16 148 25 178 3 9 11 17 17 17 7 0 23 43 36 98 44 179 78 212 46 44zm5882-468c83-39 134-108 176-234 20-59 22-85 21-275 0-275-20-368-116-557-41-81-66-114-146-196-53-54-153-158-222-230-178-189-284-256-394-248-82 5-173 73-200 149-14 39-56 97-70 96-6 0-23-24-37-52-14-29-31-51-37-50-7 2-14-8-18-22-8-33-20-32-27 2-7 36 2 183 13 208 5 11 11 36 15 56 3 21 12 42 19 48s17 30 20 53c4 24 13 49 20 58 7 8 16 35 20 59 6 36 4 42-9 38-17-7-19 4-15 68 3 55 19 82 20 33 0-37 14-61 17-30 1 9 4 31 7 47 2 17 7 66 10 110 4 53 11 84 21 91 12 9 15 40 15 159 0 82 4 162 10 179 5 17 12 44 15 60 6 27 7 27 20 10 17-24 24-17 33 37 5 31 13 45 26 47 14 3 17 0 13-13-4-9-3-14 2-10 5 3 17-2 25-11 15-14 16-13 16 11 0 18 6 29 20 32 11 3 20 9 20 13 0 12 29 40 41 40 5 0 9-6 9-14s8-22 18-32c16-17 17-16 22 22 4 30 9 38 23 36 20-3 24 37 5 56-8 8-9 12-1 12 6 0 19-7 27-16 15-14 18-14 36 8 11 12 30 40 41 62l21 39 59-6c44-4 59-2 59 8 0 13 58 45 82 45 8 0 18 3 22 8 16 15 93 30 136 25 25-2 69-16 97-29zm-5177-744c0-5 15-10 34-10s45-4 58-9c21-8 64-4 164 14 40 7 41 6 47-24 10-51 38-70 86-61 33 6 39 5 31-5-6-7-10-17-8-21 1-5-3-19-10-30-6-12-8-24-5-28 3-3 1-6-7-6-7 0-28-14-47-31-31-27-42-30-87-28-28 1-58 0-66-4-8-3-31-8-51-11-20-4-44-15-54-26-13-14-37-21-97-26-57-5-78-10-74-19 6-16-13-35-36-35-10 0-18-6-19-12-2-30-28 51-28 87-1 76 11 114 49 158 38 43 70 100 70 124 0 7 11 13 25 13s25-4 25-10zm-395-157c19-18 38-63 31-71-3-3-8 3-12 12-10 27-22 18-22-16 0-18-12-85-26-148-15-63-44-198-66-300-97-467-130-617-139-645-5-16-12-43-16-59-3-17-10-25-15-20s4 81 20 174c44 259 179 913 190 924 5 5 10 23 10 38 0 16 5 37 12 47 18 30 4 47-41 49-30 1-41-2-41-13 0-8-7-15-15-15-18 0-19 9-1 33 7 9 20 15 27 12 8-3 28-1 44 4 42 13 42 13 60-6zm1115-198c36-8 87-21 114-31l49-17-28-23c-34-27-28-50 17-59 18-4 38-11 43-15 6-4 28-10 50-13 22-2 54-10 70-17 17-7 55-16 85-20 86-13 143-33 168-58 16-16 29-21 40-16 31 13 80 16 86 5 4-6 16-11 27-11 15 0 19-7 19-31 0-22 6-32 19-36 10-3 26-21 35-41 9-21 24-50 33-67 9-16 17-47 18-68 0-22 7-42 15-47 13-8 12-15-7-48-22-39-17-62 13-62 7 0 16-5 19-11 5-7-5-8-30-3l-37 7 16-32c9-17 20-31 24-31 16 0 33-59 23-78-6-11-7-22-4-26 3-3 2-6-4-6-19 0-83 82-84 108-1 24-2 23-9-7-5-19-4-45 1-58 15-40 11-74-10-80-12-3-17-11-14-23 4-14 0-17-24-13-20 3-24 2-14-5 19-13 23-62 6-62-8 0-16 4-20 10-3 6-15 5-30-2-31-14-33-51-4-72 16-11 19-20 13-38-4-12-8-26-9-30 0-3-4-10-9-15-5-4-6 3-3 18 5 18 2 31-9 39-22 19-39-1-24-30 13-24-1-50-26-50-7 0-24-12-37-26-16-17-27-22-31-15-4 6-14 11-21 11-11 0-13-9-9-32l5-33-17 33c-16 32-37 41-49 22-4-6-11-8-16-5-5 4-5-4 1-19 16-42-23-101-44-68-3 5-19 7-36 4-30-4-31-3-28 24 2 17 8 28 16 27 17-4 15 8-5 23-26 19-33 17-33-10s-28-43-36-21c-4 8-12 15-19 15s-15 9-18 21c-3 13-10 18-17 14s-9-18-6-31c4-16-1-31-19-50-24-25-26-26-43-11-23 21-31 21-49 0-13-16-14-15-8 11 5 26 4 28-9 17-9-8-16-24-16-38 0-13-9-34-21-46l-21-22 7 40c4 22 12 54 18 72 8 24 8 39-2 60-9 17-15 23-18 15-3-7-16-25-29-39-23-25-25-25-43-9-21 19-51 12-32-7 14-14 14-27 1-27-5 0-10 7-10 16 0 13-7 15-32 11-76-13-98-20-98-28 0-5-7-9-15-9-22 0-18 18 5 25 11 3 20 12 20 19 0 8 14 16 32 20 22 4 29 9 21 17-16 16-78-3-78-26 0-28-29-42-58-26-21 11-28 10-62-13-46-31-71-33-78-5-3 12-10 18-15 15-6-3-13 1-16 10-6 15 6 38 29 57 6 5-3 6-20 2-86-19-95-18-95 4 0 15-6 21-21 21-18 0-21 5-17 30 4 27 3 29-12 15-21-19-39-19-46 0-4 8-12 15-20 15-17 0-18 12-2 28 9 9 7 12-9 12-11 0-26-7-33-15-18-22-30-9-30 32v36l-18-24c-10-13-24-39-32-57-8-21-27-40-51-52-33-17-41-18-63-6-23 11-24 15-11 26 8 7 12 16 9 22-3 5 0 16 7 24 18 22 4 27-28 11-50-26-63-9-57 76 16 230 20 324 12 340-5 10-5 17 1 17 5 0 12 24 16 53 4 28 13 66 20 84 9 21 12 58 9 107-4 60-1 85 15 123 11 27 22 68 26 92 9 66 34 112 69 126 52 22 272 47 471 54 203 8 243 6 345-14zm3624-675c14-5 26-15 26-22 0-6 9-21 19-32 25-26 34-124 21-216-5-36-12-108-16-160-8-128-11-160-19-195-4-16-9-133-12-260-5-285-6-299-17-306-4-4-3-22 3-40 14-44 12-202-3-211-6-4-11-26-11-50-1-24-4-48-7-53-3-6-9-31-12-57-5-32-12-48-22-48-9 0-14-11-14-34 0-29-5-36-30-45-30-10-38-25-20-36 12-8 13-45 1-45-5 0-12 11-15 25-6 24-26 36-26 15 0-5-9-10-21-10s-19-5-16-12c2-7 14-13 26-12 11 0 21-5 21-12s10-20 21-28c27-19 18-46-14-46-20 0-24-5-25-31-1-38-18-60-28-36-9 24-23 21-36-8-6-14-19-25-28-25-23 0-60-34-60-55 0-15-6-17-36-12-44 7-50 12-35 30 6 8 9 21 5 30-3 8 0 25 6 37 10 18 9 25-4 38-15 15-16 15-16-1 0-10-8-17-20-17-11 0-20-6-20-14s9-18 20-21c21-7 27-31 10-37-7-2-8-19-4-46 6-39 9-42 38-43l31-2-29-4c-19-3-39 3-58 17-24 18-29 19-34 5-4-8-18-15-34-15-23 0-27-3-23-24 3-16-2-31-16-45-12-12-21-27-21-35s-7-16-14-19c-11-4-13-16-9-39 3-24 0-38-11-47-21-18-20-34 4-49 11-7 20-22 20-33 0-18-4-20-25-15-14 4-25 2-25-3s-7-11-14-14c-10-4-13-1-9 9 3 7 9 14 14 14s9 7 9 15c0 23-18 18-36-10-9-14-23-25-30-25-8 0-14-10-14-25 0-22-5-27-26-24-11 1-24-25-24-48 0-14 6-23 15-23 30 0 14-18-41-45-30-15-67-38-81-51s-30-24-34-24c-5 0-9-7-9-15 0-19 30-19 56 0 10 8 28 15 40 15 11 0 31 11 44 25s30 23 38 20c7-3 27 2 44 11 22 11 33 13 41 5 15-15 27-14 27 2 0 6 9 23 19 37 19 24 20 24 40 6s20-20 4-38c-21-23-13-31 20-19 28 11 45 31 26 31-7 0-5 8 6 20 22 24 33 16 49-32 15-44 9-71-14-65-10 3-21-1-24-9-3-7-22-22-43-33l-38-20 33-1c30 0 33-2 30-27-3-24-8-28-40-31-30-3-38-7-38-23 0-11 7-19 17-19 15 0 15-1-1-18-14-16-14-23-4-43 8-15 20-23 31-21 28 6 21-42-11-73-30-28-31-40-19-164 1-19-4-26-26-32l-28-8 7 47c6 43 6 46-9 33-10-7-17-24-17-37 0-12-4-25-9-29-6-3-16-19-25-35-13-28-13-31 6-44s19-15 2-35c-17-19-19-19-36-4s-18 15-18-5c0-12-8-26-17-32-17-10-17-11 0-23 54-35 54-39 2-33-27 2-58 8-67 11-12 5-18 2-18-8 0-9-10-15-22-16-13 0-32-1-43-1-11-1-32 2-47 6-24 5-28 3-28-14 0-28 19-32 95-21 73 12 70 13 79-17 6-18-2-25-54-47-58-26-71-39-50-52 6-3 10-1 10 4 0 16 77 14 83-2 6-17-48-51-69-43-7 3-14 0-14-6 0-7-14-9-40-5-33 4-43 1-55-16-8-12-15-33-15-47 0-34-15-54-34-47s-21 48-4 65c9 9-5 12-65 12-42 0-77 4-77 9 0 23 14 41 31 41 14 0 19 7 19 25 0 16-6 25-16 25-9 0-27 11-39 24-15 16-38 26-73 31-62 8-80 0-57-25 17-19 11-50-11-50-8 0-26 8-41 17-24 16-26 16-38 0-16-22-64-22-72 0-4 11 3 24 23 40l29 24-38 34c-40 35-43 57-7 48 11-3 20-1 20 5s8 8 18 5c27-7 48 22 32 42-7 9-20 15-29 14s-37-1-62 0c-43 1-46 3-42 25 4 19 0 24-25 29-38 8-74-2-90-25-9-13-18-16-25-9-7 5-31 14-54 20-72 19-52 51 30 51 23 0 58 5 77 11s55 13 78 15c24 1 59 8 79 15l35 11-27 14c-15 8-36 14-46 14-11 0-19 5-19 11 0 7 9 9 21 6 26-7 49 1 49 18 0 7 13 18 29 25 16 6 31 20 34 31 4 15 14 19 51 19 25 0 46-4 46-9 0-13 73 13 78 27 2 8-10 12-37 12-48 0-51 10-13 40 22 18 36 21 73 17 37-5 50-2 63 12 25 27 20 31-36 31-41 1-49 3-35 11 29 17 21 36-13 31-21-3-30-10-30-23 0-19-14-23-70-20-15 1-34-6-43-17-17-18-17-20 8-36 21-14 24-20 14-32-19-23-39-17-39 14 0 15-6 34-12 41-11 10-9 15 5 26 16 12 16 13-7 19-13 3-38 3-55 0-26-5-28-8-16-20 7-8 18-14 24-14 12 0 15-17 4-23-5-2-21-7-36-11-23-5-30-3-33 11-5 16-19 18-163 17-142-1-159 1-170 17-9 15-7 20 8 29 27 14 42 13 62-5 19-18 61-12 81 12 10 13 8 14-18 12-53-4-74 1-74 16 0 9 6 15 13 14 24-3 38 1 32 10-3 5 4 12 15 16 11 3 20 11 20 17 0 9-20 8-105-5-15-3-18 52-4 69 7 9 8 18 2 27-6 6-12 19-16 28-5 14-1 15 34 7 55-15 147-1 162 23 6 10 21 19 32 19 12 0 25 4 30 9 6 4 46 20 90 34 94 29 195 75 195 88 0 17-192-43-222-68-9-8-31-13-49-11-29 3-34 8-40 36-8 39 10 55 76 70 62 14 130 55 129 79 0 15 5 19 17 16 10-3 30 4 44 15l25 20-25 6c-21 5-25 12-25 41 0 32 4 36 65 66 42 20 65 38 65 49 0 10 16 25 40 36 25 12 43 29 49 47 6 15 16 27 23 28 7 0 57 2 111 3 89 3 97 1 97-16 0-22 29-24 56-3 19 15 18 15-6 37-31 28-35 95-7 125 9 11 17 30 17 44 1 13 7 35 14 48l14 24 12-23c9-17 9-24 0-30-6-4 11-11 40-17 28-6 53-6 56-2 3 5 14 9 26 9 14 0 18 5 14 15-3 8-9 22-12 30-4 9 3 19 20 26 19 9 23 15 15 25-13 15 17 26 64 23 48-3 127 21 127 38 0 8 16 28 35 45 28 25 32 34 24 49-5 11-16 19-24 19-21 0-19 27 3 39 9 6 11 11 5 11-7 0-13 6-13 13 0 21-38 39-60 27-15-8-20-6-23 8-4 13-5 12-6-5 0-12-6-25-11-28-6-4-8-11-5-16 4-5-1-9-9-9s-17 4-20 9c-8 13 12 62 35 87 19 20 19 20-12 43-17 12-37 20-46 17-8-3-19-4-24 0-13 7 42 51 74 59 15 4 27 10 27 14 0 10-42 8-58-3-9-5-19-3-29 6-13 13-9 18 34 39 26 13 47 28 46 34-1 5-19 15-40 22s-27 11-13 8c18-3 32 4 52 26 27 29 27 30 8 49-11 11-28 20-39 20-27 0-36 51-10 57 13 4 19 14 19 33 0 16 7 30 15 34 8 3 15 1 15-4 0-20 26-9 37 17 16 34 10 39-19 19-24-17-49-21-47-8 1 4 0 9-1 12-11 21-4 67 12 78 10 7 18 19 18 25 0 7 5 19 10 27 8 13 11 12 23-4 20-27 27-9 17 44-6 31-5 47 3 52 12 8 7 10-22 12-24 2-25 27-2 33 17 4 21 12 19 32-2 19 2 27 16 29 14 3 17 0 13-12-4-10-1-16 8-16 8 0 12 6 9 13-6 17 33 67 52 67 15 0 20 36 5 42-13 4-25 58-13 58 5 0 12-9 15-21s10-19 14-16c13 8 15 74 3 82-20 12-11 33 12 27 16-4 20-2 15 10-4 11 3 20 24 29 21 8 29 17 26 28-3 9-10 31-15 49-7 20-7 32-1 32s6 7-1 19c-5 11-10 29-10 40 0 10-5 21-11 23s-7 12-1 27c8 21 9 20 22-18 7-23 17-41 22-41 12 0 9 40-7 85-17 46-19 81-6 90 6 3 15-4 21-15 9-17 17-20 40-15s32 2 42-14c19-31 28-25 28 19 0 39 13 53 24 28 3-9 12-4 26 15 25 31 21 30 54 17zm-5603-1e3c5 0 9-7 9-15 0-9 6-12 17-8 14 6 15 0 10-42-8-56-28-117-41-127-5-3-15-4-22-1-7 2-15-5-19-16-3-12-10-21-15-21s-16-7-25-16c-15-15-17-15-34 0-9 8-28 41-40 71-22 52-22 57-7 74 9 10 16 23 16 29 0 7 6 12 14 12s24 12 36 28c22 28 55 43 78 36 8-2 18-4 23-4zm2400-1176c6-8 20-12 29-9 19 6 42-16 38-35-2-7 3-15 10-17 6-3 12 3 12 12 0 12 5 15 16 11 9-3 24-6 35-6 10 0 19-7 19-15 0-9 7-18 15-21 8-4 15-17 15-29 0-16 7-26 23-30 33-10 111-49 116-58 3-9 149-107 159-107 3 0 15-9 26-19 12-11 39-26 60-33 22-7 42-19 44-27 4-11 0-12-14-6-11 4-39 10-64 12-53 6-80 18-80 38 0 8-5 15-12 15-6 0-20 7-30 17-10 9-21 13-25 9s-1-11 7-16c11-7 8-10-15-10-27-1-28-2-9-10 14-5 24-21 28-45 4-20 6-38 4-40-2-1-12-7-22-12-19-10-18-11 2-22 18-10 22-9 22 4 0 42 82-4 103-58 3-9 13-17 20-17 8 0 22-10 33-21l19-22-37 5c-31 3-35 2-25-10 6-8 22-18 35-23 21-8 23-13 17-45l-6-36 33 6c23 4 40 1 53-9 11-8 27-15 36-15s22-7 29-15c10-13 9-15-9-15-34 0-25-28 19-55 22-14 44-25 49-25s16-6 23-12c7-7 25-19 41-27 15-8 27-21 27-28 0-8 16-21 35-29 27-11 35-20 35-39 0-28 31-49 60-40 10 3 36-1 57-10 38-16 38-16 17-34-18-14-19-19-7-29 7-7 22-10 33-7s28 2 37-4c10-6 12-11 6-11-7 0-13-5-13-11s-7-18-16-27c-15-14-15-16 2-23 11-4 27-17 37-29 15-17 25-21 50-16 28 5 36 1 60-28 15-19 27-37 27-40 0-12-58-5-69 8-12 14-61 10-61-5 0-5 5-9 11-9 7 0 22-11 34-24s27-25 35-28c10-3 10-8 1-27-16-29 3-55 36-48 31 6 48-15 33-42-12-24-21-26-39-8-10 10-15 8-29-9-9-12-30-24-45-28-37-9-27-22 17-24 20-1 47-9 60-17 20-13 28-14 44-4 11 7 27 9 36 6 23-9 20-37-4-37s-26-13-5-30c8-7 15-9 15-6 0 4 6 2 13-5 6-6 13-31 15-54l3-42-51-6c-44-5-74-1-210 29-17 4-33-1-50-16-25-22-25-22-28-2-4 25-19 31-93 39-46 4-62 11-73 29-11 16-34 27-80 37-36 8-73 22-81 31-9 9-30 16-46 16s-29 5-29 10c0 6-13 10-29 10s-36 6-43 14c-24 23-76 46-92 40-25-9-19-21 13-27 23-5 30-12 33-33 2-20 11-30 33-37 17-5 42-21 57-34 20-20 33-24 53-19 21 5 28 3 32-13 3-10 13-21 24-24 22-6 26-42 5-50-8-3-24-3-35 0-16 4-20 10-15 26 5 15 3 19-9 14-25-9-128 23-149 46-14 16-21 19-25 9-3-9-11-3-24 17-10 17-25 31-33 31s-16 7-20 15c-3 8-12 12-20 9s-19 3-26 15c-6 12-19 21-30 21-23 0-60 45-60 74 0 14-14 30-40 45-36 23-72 81-49 81 19 0 8 33-31 91-22 33-40 66-40 73s-9 21-20 31-20 27-20 38c0 10-10 33-22 50-14 19-23 50-26 86-2 31-9 61-13 67-16 20-70 198-74 244-2 24-11 74-19 110-14 59-25 167-43 409-4 56-2 85 5 90 22 13 90 10 103-5zm1029-1729c5-13 17-26 27-28 52-14 72-16 78-7 10 17 43 11 101-16 38-18 54-31 54-45 0-26-44-25-87 0-25 16-48 19-103 18-63-2-74 1-90 21-10 12-29 22-42 22-30 0-78 22-78 36 0 16 50 30 93 25 29-2 40-9 47-26z"/>
<path d="m7651 6283c-40-5-106-44-121-72-12-24-13-42-1-22 15 23 110 16 139-11 30-28 67-107 88-193 17-67 28-80 39-45 3 11 13 20 20 20 29 0 37-43 39-201 0-88 4-159 7-159s15 28 26 63c23 65 37 198 38 332 0 74-3 85-40 154-22 40-53 84-68 97-27 23-88 45-117 42-8-1-30-3-49-5z"/>
<path d="m7254 5905c-29-51-48-107-58-178-6-39-4-48 9-53 22-9 85 22 85 41 0 8 4 15 9 15 14 0 41-47 41-72 0-15 11-29 30-40 16-9 38-31 49-48 26-44 51-59 79-49 26 10 28 22 7 39-10 8-16 29-15 54 1 42-12 118-24 147-4 9-37 43-73 74-36 32-70 71-75 87-14 40-33 35-64-17z"/>
<path d="m2801 4886c-15-8-39-12-61-9s-40 1-44-6c-4-6-29-11-56-11-63 0-110-36-110-84 0-18-6-38-12-44-10-10-10-17 0-32 6-11 12-27 12-35 0-17 27-20 32-3 2 6 11 9 19 6 9-4 3-11-20-24-42-23-103-77-78-68 13 5 20 1 24-15 6-24 20-23 87 10 22 10 42 16 45 14 2-3 0-5-6-5-16 0-25-31-13-46 9-9 6-15-9-24-17-9-21-8-21 6 0 28-15 5-16-24-1-15-6-38-12-52-13-33-10-34 26-13 37 21 46 15 29-20-8-19-24-31-52-38-22-6-46-13-52-15-7-2-13-13-13-25 0-15 4-19 16-15 9 3 24 6 35 6 25 0 109 81 109 106 0 11 14 32 31 47 53 46 62 32 29-42-11-24-20-45-20-47 0-13 28 1 61 31 22 19 45 35 53 35s16 7 20 15c8 22 34 18 41-5 3-11 13-20 21-20s17-7 20-15c7-17 39-20 49-6 7 12 64 41 80 41 7 0 20 9 30 20 14 15 15 23 6 34-14 16-11 19 42 36 32 10 37 15 35 38-3 22 1 28 22 30 46 6 54 11 40 27-15 19-9 26 33 40 18 5 32 17 32 25 0 20 15 30 43 30 12 0 46 13 75 30 29 16 47 30 42 30-6 0-11 12-10 28 0 24-4 27-36 30s-38 0-47-25c-9-27-13-29-73-31-79-2-129 13-129 38 0 10-5 22-11 26-17 10-109 13-109 3 0-5-5-9-11-9s-8 7-5 15c4 12-2 16-27 15-17 0-61 2-97 5-46 4-72 1-89-9z"/>
<path d="m4630 7816c-3-2-63-7-133-10-82-4-137-12-150-20-12-8-48-19-80-26-32-6-57-13-55-15s64 2 138 10c74 7 196 17 270 21 120 6 132 8 105 19-37 16-89 27-95 21z"/>
<path d="m5092 7773c-5-10-12-30-16-45-3-15-13-34-22-43-16-15-15-20 5-63 29-64 40-124 41-208 0-66 2-72 23-78 34-9 37-8 37 14 0 10-7 23-16 28-34 19 24 124 97 177 39 29 40 30 16 33-22 3-25 9-31 69-4 42-3 70 4 77 24 24 1 38-82 50-39 6-48 4-56-11z"/>
<path d="m3105 7521c-41-8-46-44-11-80 14-14 36-52 50-83l26-58 47 7c28 4 61 17 80 31 30 25 31 27 15 47-9 12-34 34-54 49-38 27-51 50-23 40 26-10 17 11-15 34-29 22-58 25-115 13z"/>
<path d="m4353 7411c-28-4-60-14-70-24-11-9-24-17-30-17-20 0-73-95-73-131 0-22-10-48-25-69-25-35-34-80-14-80 18 0 53 22 77 48 34 39 36 20 3-47-29-60-29-62-8-55 12 4 24 10 27 14 13 18 73 38 153 50 68 10 92 18 103 34 8 11 14 23 14 27 0 14-40 16-57 3-21-16-53-18-53-4 0 6 7 24 15 40 15 28 27 36 50 30 27-7 70 3 93 21 20 16 35 19 67 14 83-12 222-79 244-117 16-27 49-40 129-53 40-6 42-6 42 19 0 24-15 33-162 105-145 70-257 111-306 111-9 0-29 6-44 14-16 9-42 12-65 9-28-4-43-1-52 10-10 13-8 18 18 32 17 8 31 18 31 20 0 6-36 4-107-4z"/>
<path d="m4565 7409c167-23 267-62 415-159 32-22 61-40 65-40 12 0 3 38-13 53-32 29-154 88-254 123-84 29-109 34-185 33l-88-1 60-9z"/>
<path d="m5166 7253c-3-4-6-55-6-115v-109l38-39c37-38 72-57 121-65 14-2 36-7 49-11 17-5 22-3 20 7-2 8 3 12 12 10 50-13 110-4 110 17 0 4-18 16-40 26-22 11-39 24-38 30 2 6-9 27-25 47-15 20-32 50-38 67-9 25-19 34-50 42-24 7-55 27-77 49-37 39-65 55-76 44z"/>
<path d="m2800 6398c-41-11-80-45-80-67 0-9 7-25 15-35 23-30 18-44-21-62-26-13-34-22-31-36 7-26-5-22-38 12-16 17-34 30-41 30-6 0-17 7-24 16-16 18-99 68-105 62-7-6 74-159 107-202 17-23 50-59 72-80 25-24 36-41 29-43-18-7-16-30 3-37 22-9 24-6 28 43 2 30 10 47 26 58 16 12 20 21 15 41-6 23-5 24 12 12 10-8 28-22 39-33 45-39 210-30 202 11-2 10-23 24-53 33-83 28-169 92-102 76 86-20 184-37 215-37 19 0 63-11 96-24 34-13 99-29 145-36l83-13-6-36c-3-20-2-41 2-48 11-17 117-43 177-43 108 1 179 35 217 104 9 17 17 44 18 59 0 25-3 27-22 21-13-4-36-18-53-32-27-22-35-24-105-19-97 7-113 11-118 27-3 9 1 11 12 7 13-5 17-2 14 10-2 10-11 19-19 21-9 2-41 26-70 53-60 56-112 85-208 118-69 24-219 55-315 66-33 4-64 8-70 10s-27-1-46-7z"/>
<path d="m0 3082v-150l46 14c26 8 52 18 58 23s35 13 64 17 54 9 56 13c2 3 2 19-1 34-4 19-21 38-58 63-29 19-66 49-81 68-16 18-41 41-56 50l-28 18v-150z"/>
</g>
</svg>
